<svg xmlns="http://www.w3.org/2000/svg" width="24" height="24" viewBox="0 0 24 24">
    <path fill="#adafb2" d="M13.214 24h-2.429c-1.13 0-2.443-.006-3.739-.079a7.091 7.091 0 0 1-5.03-1.938 7.092 7.092 0 0 1-1.937-5.031C0 15.5 0 14.03 0 12.609V12v-.608C0 9.97 0 8.5.079 7.047a7.091 7.091 0 0 1 1.938-5.03A7.091 7.091 0 0 1 7.047.079C8.342.006 9.656 0 10.785 0h2.429c1.13 0 2.443.006 3.738.079a7.092 7.092 0 0 1 5.031 1.938 7.091 7.091 0 0 1 1.938 5.03C24 8.5 24 9.97 24 11.391v1.217c0 1.422 0 2.891-.079 4.344a7.092 7.092 0 0 1-1.938 5.031 7.092 7.092 0 0 1-5.031 1.938c-1.294.073-2.608.079-3.738.079zM12 21.843c.245 0 .534 0 .84.006.374 0 .8.008 1.239.008a17.128 17.128 0 0 0 5-.5 4.091 4.091 0 0 0 2.281-2.281c.538-1.357.509-4.294.49-6.238 0-.306-.006-.595-.006-.84s0-.534.006-.84c.019-1.944.047-4.881-.49-6.238a3.855 3.855 0 0 0-.906-1.375 3.845 3.845 0 0 0-1.375-.906 17.128 17.128 0 0 0-5-.5c-.441 0-.865 0-1.239.008-.306 0-.595.006-.84.006s-.534 0-.84-.006c-.374 0-.8-.008-1.239-.008a17.128 17.128 0 0 0-5 .5 3.845 3.845 0 0 0-1.375.906A3.845 3.845 0 0 0 2.64 4.92c-.54 1.36-.508 4.297-.489 6.24 0 .306.006.595.006.84s0 .534-.006.84c-.019 1.944-.047 4.881.49 6.238a3.845 3.845 0 0 0 .906 1.375 3.855 3.855 0 0 0 1.375.906 17.128 17.128 0 0 0 5 .5c.441 0 .865 0 1.239-.008.305-.005.594-.008.839-.008zm0-3.687a6.148 6.148 0 1 1 4.355-1.8 6.117 6.117 0 0 1-4.355 1.8zM12 8a4 4 0 1 0 4 4 4 4 0 0 0-4-4zm6.405-.968a1.438 1.438 0 1 1 1.438-1.438 1.439 1.439 0 0 1-1.438 1.438z"/>
</svg>
