<svg xmlns="http://www.w3.org/2000/svg" width="24" height="24" viewBox="0 0 24 24">
    <path fill="none" d="M0 0H24V24H0z"/>
    <path fill="#adafb2" d="M24 2.315a9.862 9.862 0 0 1-2.832.761A4.905 4.905 0 0 0 23.33.365a9.683 9.683 0 0 1-3.122 1.188A4.923 4.923 0 0 0 11.7 4.919a5.552 5.552 0 0 0 .122 1.127A13.981 13.981 0 0 1 1.675.9 4.926 4.926 0 0 0 3.2 7.477a4.954 4.954 0 0 1-2.225-.624v.061a4.919 4.919 0 0 0 3.944 4.827 5.2 5.2 0 0 1-1.294.168 6.2 6.2 0 0 1-.929-.076 4.927 4.927 0 0 0 4.6 3.411 9.851 9.851 0 0 1-6.107 2.1A10.169 10.169 0 0 1 0 17.284a13.9 13.9 0 0 0 7.553 2.208A13.9 13.9 0 0 0 21.548 5.5c0-.213 0-.426-.015-.64A10.574 10.574 0 0 0 24 2.315z" transform="translate(0 2.254)"/>
</svg>
