<svg xmlns="http://www.w3.org/2000/svg" width="24" height="24" viewBox="0 0 24 24">
    <path fill="none" d="M0 0H24V24H0z"/>
    <path fill="#adafb2" d="M12 18c-3.172 0-6-.063-8.391-.188a3.223 3.223 0 0 1-2.461-1.1 3.864 3.864 0 0 1-1.008-2.7C.047 12.336 0 10.649 0 9c0-1.089.063-2.776.188-5.016a3.917 3.917 0 0 1 .984-2.695A3.152 3.152 0 0 1 3.609.188C5.88.063 8.561 0 11.578 0h.844c3.017 0 5.7.063 7.968.188a3.223 3.223 0 0 1 2.461 1.1 3.863 3.863 0 0 1 1.008 2.695C23.953 5.664 24 7.352 24 9s-.047 3.337-.141 5.016a3.864 3.864 0 0 1-1.008 2.7 3.223 3.223 0 0 1-2.461 1.1C18 17.937 15.173 18 12 18zM9.7 4.36v9.234L16.5 9z" transform="translate(0 3)"/>
</svg>
